<svg xmlns="http://www.w3.org/2000/svg" xmlns:xlink="http://www.w3.org/1999/xlink" xmlns:lucid="lucid" width="1368" height="1381"><g transform="translate(-93 -199)" lucid:page-tab-id="0_0"><path d="M0 0h1880.83v1713.02H0z" fill="#fff"/><path d="M180 400.5l-.24 1093.54" fill="none"/><path d="M180 400.5v5m0 5v9.97m0 5v9.98m0 5v9.98m0 5v9.98m-.02 5v10m0 5v9.97m0 5v9.98m0 5v9.98m0 5v9.98m0 5v10m0 5l-.02 9.97m0 5v9.98m0 5v9.98m0 5v9.98m0 5v10m0 5v9.97m0 5l-.02 9.98m0 5v9.98m0 5v9.98m0 5v10m0 5v9.97m0 5v9.98m0 5l-.02 9.98m0 5V765m0 5v10m0 5v9.97m0 5v9.98m0 5v9.98m0 5v9.98m-.02 5v10m0 5v9.98m0 5v9.98m0 5v9.98m0 5v9.98m0 5v9.98m-.02 5v9.98m0 5v9.98m0 5v9.98m0 5v9.98m0 5v9.98m0 5v9.98m0 5l-.02 9.98m0 5v9.98m0 5v9.98m0 5v9.98m0 5v9.98m0 5v9.98m0 5l-.02 9.98m0 5v9.98m0 5v9.98m0 5v9.98m0 5v9.98m0 5v9.98m0 5l-.02 9.98m0 5v9.98m0 5v9.98m0 5v9.98m0 5v9.98m0 5v9.98m0 5l-.02 9.98m0 5v9.98m0 5v9.98m0 5v9.98m0 5v9.98m0 5v9.98m0 5v9.98m-.02 5v9.98m0 5v9.98m0 5v9.98m0 5v9.98m0 5v9.98m0 5v9.98m0 5l-.02 4.98M180 400.5v-.5M179.76 1494.03v3.5" stroke="#333" fill="none"/><path d="M159.75 420.06c0-4.42 3.6-8 8-8h24c4.42 0 8 3.58 8 8V1432c0 4.42-3.58 8-8 8h-24c-4.4 0-8-3.58-8-8z" stroke="#f2f2f2" fill="#d2d3d5"/><path d="M675.87 320.5v1199" fill="none"/><path d="M675.87 320.5v5m0 5v9.98m0 5v10m0 5v9.98m0 5v10m0 4.98v10m0 5v9.98m0 5v10m0 4.98v10m0 5v9.98m0 5v10m0 5v9.98m0 5v10m0 4.98v10m0 5v9.98m0 5v10m0 4.98v10m0 5v9.98m0 5v10m0 5v9.98m0 5v10m0 4.98v10m0 5v9.98m0 5v10m0 4.98v10m0 5v9.98m0 5v10m0 5v9.98m0 5v10m0 4.98v10m0 5v9.98m0 5v10m0 4.98v10m0 5v9.98m0 5v10m0 5v9.98m0 5v10m0 4.98v10m0 5V895m0 5v10m0 4.98v10m0 5v9.98m0 5v10m0 5v9.98m0 5v10m0 4.98v10m0 5v9.98m0 5v10m0 4.98v10m0 5v9.98m0 5v10m0 5v9.98m0 5v10m0 4.98v10m0 5v9.98m0 5v10m0 4.98v10m0 5v9.98m0 5v10m0 5v9.98m0 5v10m0 4.98v10m0 5v9.98m0 5v10m0 4.98v10m0 5v9.98m0 5v10m0 5v9.98m0 5v10m0 4.98v10m0 5v9.98m0 5v10m0 4.98v10m0 5v9.98m0 5v10m0 5v9.98m0 5v10m0 4.98v10m0 5v9.98m0 5v10m0 4.98v5" stroke="#333" fill="none"/><path d="M676.37 320.5h-1v-.5h1z" fill="#333"/><path d="M675.87 1519.5v.5" stroke="#333" fill="none"/><path d="M136.47 1468c0-4.42 3.58-8 8-8h70.57c4.42 0 8 3.58 8 8v64c0 4.42-3.58 8-8 8h-70.57c-4.42 0-8-3.58-8-8z" fill="none"/><path d="M145.12 1468l69.26 64m0-64l-69.26 64" stroke="#666" stroke-width="8" fill="none"/><path d="M655.87 479.73c0-4.42 3.58-8 8-8h24c4.42 0 8 3.58 8 8V1412c0 4.42-3.58 8-8 8h-24c-4.42 0-8-3.58-8-8z" stroke="#f2f2f2" fill="#d2d3d5"/><path d="M200.75 482.06h226.9c.1 0 .16-.07.16-.16 0-.1.1-.17.18-.17h211" stroke="#333" fill="none"/><path d="M200.77 482.56h-.52v-1h.52z" fill="#333"/><path d="M653.75 481.73l-14.26 4.63v-9.27z" stroke="#333" fill="#333"/><use xlink:href="#a" transform="matrix(1,0,0,1,360.0750037037931,459.0626727849052) translate(0 12.444444444444446)"/><use xlink:href="#b" transform="matrix(1,0,0,1,360.0750037037931,459.0626727849052) translate(65.5925925925926 12.444444444444446)"/><path d="M1174.82 320.5v1199" fill="none"/><path d="M1174.82 320.5v5m0 5v9.98m0 5v10m0 5v9.98m0 5v10m0 4.98v10m0 5v9.98m0 5v10m0 4.98v10m0 5v9.98m0 5v10m0 5v9.98m0 5v10m0 4.98v10m0 5v9.98m0 5v10m0 4.98v10m0 5v9.98m0 5v10m0 5v9.98m0 5v10m0 4.98v10m0 5v9.98m0 5v10m0 4.98v10m0 5v9.98m0 5v10m0 5v9.98m0 5v10m0 4.98v10m0 5v9.98m0 5v10m0 4.98v10m0 5v9.98m0 5v10m0 5v9.98m0 5v10m0 4.98v10m0 5V895m0 5v10m0 4.98v10m0 5v9.98m0 5v10m0 5v9.98m0 5v10m0 4.98v10m0 5v9.98m0 5v10m0 4.98v10m0 5v9.98m0 5v10m0 5v9.98m0 5v10m0 4.98v10m0 5v9.98m0 5v10m0 4.98v10m0 5v9.98m0 5v10m0 5v9.98m0 5v10m0 4.98v10m0 5v9.98m0 5v10m0 4.98v10m0 5v9.98m0 5v10m0 5v9.98m0 5v10m0 4.98v10m0 5v9.98m0 5v10m0 4.98v10m0 5v9.98m0 5v10m0 5v9.98m0 5v10m0 4.98v10m0 5v9.98m0 5v10m0 4.98v5" stroke="#333" fill="none"/><path d="M1175.32 320.5h-1v-.5h1z" fill="#333"/><path d="M1174.82 1519.5v.5" stroke="#333" fill="none"/><path d="M1154.82 608c0-4.42 3.58-8 8-8h24c4.42 0 8 3.58 8 8v64c0 4.42-3.58 8-8 8h-24c-4.42 0-8-3.58-8-8z" stroke="#f2f2f2" fill="#d2d3d5"/><path d="M611.74 252.67c0-4.42 3.58-8 8-8H732c4.42 0 8 3.58 8 8V312c0 4.42-3.58 8-8 8H619.74c-4.42 0-8-3.58-8-8z" stroke="#000" stroke-opacity="0" fill="#ffcc78"/><use xlink:href="#c" transform="matrix(1,0,0,1,619.7432347862862,252.6688961152822) translate(44.63777809479424 34.758105722422364)"/><path d="M1109.64 252.67c0-4.42 3.58-8 8-8H1232c4.42 0 8 3.58 8 8V312c0 4.42-3.58 8-8 8h-114.36c-4.42 0-8-3.58-8-8z" stroke="#000" stroke-opacity="0" fill="#ffd99a"/><use xlink:href="#d" transform="matrix(1,0,0,1,1117.6382349679823,252.6688961152822) translate(35.03116742189439 34.758105722422364)"/><path d="M197.95 238.2c0 10.05-8.15 18.2-18.2 18.2-10.05 0-18.2-8.15-18.2-18.2 0-10.05 8.15-18.2 18.2-18.2 10.05 0 18.2 8.15 18.2 18.2z" stroke="#333" fill="#ffe6be"/><path d="M142.5 228c0-4.42 3.6-8 8-8H209c4.4 0 8 3.58 8 8v129.58c0 4.42-3.6 8-8 8h-58.5c-4.4 0-8-3.58-8-8z" fill="none"/><path d="M179.75 256.4v42.95c0 4.42 1.93 11.02 4.3 14.74L217 365.57m-37.25-58.23l-37.24 58.23m0-91H217" stroke="#333" fill="none"/><use xlink:href="#e" transform="matrix(1,0,0,1,62.51270845012215,365.5835210580929) translate(88.6141975308642 14.11111111111111)"/><path d="M654.87 526.46h-226.5c-.3 0-.56-.25-.56-.55 0-.3-.23-.54-.54-.54H216.64" fill="none"/><path d="M654.87 526.46h-9.44m-9.43 0h-18.88m-9.44 0H588.8m-9.43 0H560.5m-9.45 0h-18.87m-9.44 0h-18.87m-9.44 0h-18.88m-9.44 0h-18.86m-9.44 0h-9.44l-.4-.16-.15-.4-.15-.38-.4-.16h-10.02m-10.03 0h-20.06m-10.03 0h-20.05m-10.03 0h-20.06m-10.02 0h-20.06m-10.03 0H266.8m-10.04 0H236.7m-10.03 0h-10.03" stroke="#333" fill="none"/><path d="M655.37 526.96h-.5v-1h.5z" fill="#333"/><path d="M201.87 525.36l14.27-4.64V530z" stroke="#333" fill="#333"/><use xlink:href="#f" transform="matrix(1,0,0,1,400.2433290002833,502.69792947136244) translate(0.004999999999999005 12.444444444444446)"/><use xlink:href="#g" transform="matrix(1,0,0,1,400.2433290002833,502.69792947136244) translate(46.58524691358025 12.444444444444446)"/><path d="M200.75 584.3H639" stroke="#333" fill="none"/><path d="M200.77 584.8h-.52v-1h.52z" fill="#333"/><path d="M653.75 584.3l-14.26 4.64v-9.27z" stroke="#333" fill="#333"/><use xlink:href="#h" transform="matrix(1,0,0,1,351.43909736018617,561.6388778243746) translate(0.0049999999999954525 12.444444444444446)"/><use xlink:href="#i" transform="matrix(1,0,0,1,351.43909736018617,561.6388778243746) translate(62.96179012345678 12.444444444444446)"/><use xlink:href="#j" transform="matrix(1,0,0,1,351.43909736018617,561.6388778243746) translate(85.3877160493827 12.444444444444446)"/><path d="M696.87 615.1h441.06" stroke="#333" fill="none"/><path d="M696.88 615.6h-.5v-1h.5z" fill="#333"/><path d="M1152.7 615.1l-14.27 4.63v-9.27z" stroke="#333" fill="#333"/><use xlink:href="#k" transform="matrix(1,0,0,1,814.0151205249869,592.4323189042714) translate(0.0049999999999954525 12.444444444444446)"/><path d="M712.76 655.8h441.06" fill="none"/><path d="M712.76 655.8h9.8m9.8 0h19.6m9.8 0h19.6m9.8 0h19.6m9.8 0h19.6m9.82 0h19.6m9.8 0h19.6m9.8 0h19.6m9.8 0h19.6m9.8 0h19.62m9.8 0h19.6m9.8 0h19.6m9.8 0h19.6m9.8 0h19.6m9.8 0h19.62m9.8 0h9.8" stroke="#333" fill="none"/><path d="M698 655.8l14.26-4.64v9.27z" stroke="#333" fill="#333"/><path d="M1154.32 656.3h-.5v-1h.5z" fill="#333"/><use xlink:href="#k" transform="matrix(1,0,0,1,814.0151205249869,633.123651759849) translate(0.0049999999999954525 12.444444444444446)"/><path d="M200.75 689.88H639" stroke="#333" fill="none"/><path d="M200.77 690.38h-.52v-1h.52z" fill="#333"/><path d="M653.75 689.88l-14.26 4.64v-9.27z" stroke="#333" fill="#333"/><use xlink:href="#l" transform="matrix(1,0,0,1,302.89280106388986,667.2163900983063) translate(0.0049999999999954525 12.444444444444446)"/><use xlink:href="#i" transform="matrix(1,0,0,1,302.89280106388986,667.2163900983063) translate(36.73339506172839 12.444444444444446)"/><use xlink:href="#m" transform="matrix(1,0,0,1,302.89280106388986,667.2163900983063) translate(59.15932098765431 12.444444444444446)"/><use xlink:href="#n" transform="matrix(1,0,0,1,302.89280106388986,667.2163900983063) translate(123.75808641975308 12.444444444444446)"/><use xlink:href="#j" transform="matrix(1,0,0,1,302.89280106388986,667.2163900983063) translate(182.4803086419753 12.444444444444446)"/><path d="M1154.82 729.17c0-4.42 3.58-8 8-8h24c4.42 0 8 3.58 8 8v64c0 4.42-3.58 8-8 8h-24c-4.42 0-8-3.58-8-8z" stroke="#f2f2f2" fill="#d2d3d5"/><path d="M696.87 727.28h441.44" stroke="#333" fill="none"/><path d="M696.88 727.78h-.5v-1h.5z" fill="#333"/><path d="M1153.07 727.28l-14.26 4.63v-9.26z" stroke="#333" fill="#333"/><use xlink:href="#o" transform="matrix(1,0,0,1,833.6455228341317,704.6084256953238) translate(0.0049999999999954525 12.444444444444446)"/><path d="M1195.82 739.37h34.5c2.76 0 5 2.24 5 5v27.4c0 2.76-2.24 5-5 5h-18.62" stroke="#333" fill="none"/><path d="M1195.83 739.87h-.5v-1h.5z" fill="#333"/><path d="M1196.94 776.76l14.26-4.63v9.27z" stroke="#333" fill="#333"/><use xlink:href="#p" transform="matrix(1,0,0,1,1243.3191174840322,748.735200108554) translate(0.0049999999999954525 12.444444444444446)"/><path d="M1153.82 785.56H712.76" fill="none"/><path d="M1153.82 785.56h-9.8m-9.8 0h-19.6m-9.8 0h-19.6m-9.8 0h-19.62m-9.8 0h-19.6m-9.8 0H997m-9.8 0h-19.6m-9.8 0h-19.6m-9.8 0h-19.62m-9.8 0h-19.6m-9.8 0h-19.6m-9.8 0h-19.6m-9.8 0h-19.6m-9.8 0h-19.62m-9.8 0h-19.6m-9.8 0h-9.8" stroke="#333" fill="none"/><path d="M1154.32 786.06h-.5v-1h.5z" fill="#333"/><path d="M698 785.56l14.26-4.63v9.27z" stroke="#333" fill="#333"/><use xlink:href="#o" transform="matrix(1,0,0,1,833.4595649694518,762.896010596557) translate(0.0049999999999954525 12.444444444444446)"/><path d="M200.75 819.44H639" stroke="#333" fill="none"/><path d="M200.77 819.94h-.52v-1h.52z" fill="#333"/><path d="M653.75 819.44l-14.26 4.63v-9.27z" stroke="#333" fill="#333"/><use xlink:href="#q" transform="matrix(1,0,0,1,385.5532948910503,796.7687957844432) translate(0.005000000000002558 12.444444444444446)"/><path d="M1154.82 848c0-4.42 3.58-8 8-8h24c4.42 0 8 3.58 8 8v64c0 4.42-3.58 8-8 8h-24c-4.42 0-8-3.58-8-8z" stroke="#f2f2f2" fill="#d2d3d5"/><path d="M696.87 844.73h441.72" stroke="#333" fill="none"/><path d="M696.88 845.23h-.5v-1h.5z" fill="#333"/><path d="M1153.35 844.73l-14.26 4.64v-9.28z" stroke="#333" fill="#333"/><use xlink:href="#r" transform="matrix(1,0,0,1,843.2907775791799,822.0634081000728) translate(0.0049999999999954525 12.444444444444446)"/><path d="M1153.82 899.72H712.75" fill="none"/><path d="M1153.82 899.72h-9.52m-9.52 0h-19.04m-9.52 0h-19.04m-9.52 0h-19.04m-9.52 0h-19.04m-9.52 0h-19.04m-9.52 0h-19.04m-9.52 0h-19.04m-9.5 0H915.2m-10.12 0h-20.25m-10.12 0h-20.25m-10.12 0H824.1m-10.1 0h-20.26m-10.12 0h-20.25m-10.12 0H733m-10.12 0h-10.12" stroke="#333" fill="none"/><path d="M1154.32 900.22h-.5v-1h.5z" fill="#333"/><path d="M698 899.72l14.26-4.64v9.27z" stroke="#333" fill="#333"/><use xlink:href="#r" transform="matrix(1,0,0,1,842.9657378089579,877.0516957427458) translate(0.0049999999999954525 12.444444444444446)"/><path d="M200.75 934.7H639" stroke="#333" fill="none"/><path d="M200.77 935.2h-.52v-1h.52z" fill="#333"/><path d="M653.75 934.7l-14.26 4.63v-9.27z" stroke="#333" fill="#333"/><use xlink:href="#s" transform="matrix(1,0,0,1,391.2137887182109,912.0242466834857) translate(0.005000000000002558 12.444444444444446)"/><path d="M654.87 987.48H216.64" fill="none"/><path d="M654.87 987.48h-9.74m-9.74 0H615.9m-9.74 0H586.7m-9.74 0H557.5m-9.75 0h-19.48m-9.74 0h-19.48m-9.73 0h-19.48m-9.74 0h-19.48m-9.73 0h-19.5m-9.73 0H382.2m-9.75 0h-19.47m-9.74 0h-19.48m-9.74 0h-19.47m-9.74 0h-19.47m-9.74 0h-19.5m-9.72 0h-9.74" stroke="#333" fill="none"/><path d="M655.37 987.98h-.5v-1h.5z" fill="#333"/><path d="M201.87 987.48l14.27-4.64v9.27z" stroke="#333" fill="#333"/><use xlink:href="#f" transform="matrix(1,0,0,1,400.20144303919847,964.8130028204516) translate(0.004999999999999005 12.444444444444446)"/><use xlink:href="#t" transform="matrix(1,0,0,1,400.20144303919847,964.8130028204516) translate(46.58524691358025 12.444444444444446)"/><path d="M200.75 1036.75H639" stroke="#333" fill="none"/><path d="M200.77 1037.25h-.52v-1h.52z" fill="#333"/><path d="M653.75 1036.75l-14.26 4.63v-9.27z" stroke="#333" fill="#333"/><use xlink:href="#u" transform="matrix(1,0,0,1,357.92057884166763,1014.0825085482865) translate(0.0049999999999954525 12.444444444444446)"/><use xlink:href="#v" transform="matrix(1,0,0,1,357.92057884166763,1014.0825085482865) translate(69.91858024691358 12.444444444444446)"/><path d="M1195.82 859.03h34.5c2.76 0 5 2.24 5 5v36.2c0 2.75-2.24 5-5 5h-18.62" stroke="#333" fill="none"/><path d="M1195.83 859.53h-.5v-1h.5z" fill="#333"/><path d="M1196.94 905.22l14.26-4.64v9.27z" stroke="#333" fill="#333"/><use xlink:href="#p" transform="matrix(1,0,0,1,1243.3191174840322,872.7887770304238) translate(0.0049999999999954525 12.444444444444446)"/><path d="M1154.82 1048c0-4.42 3.58-8 8-8h24c4.42 0 8 3.58 8 8v264c0 4.42-3.58 8-8 8h-24c-4.42 0-8-3.58-8-8z" stroke="#f2f2f2" fill="#d2d3d5"/><path d="M696.87 1054.35h441.07" stroke="#333" fill="none"/><path d="M696.88 1054.85h-.5v-1h.5z" fill="#333"/><path d="M1152.7 1054.35l-14.26 4.63v-9.27z" stroke="#333" fill="#333"/><use xlink:href="#w" transform="matrix(1,0,0,1,874.8546266978468,1031.678760593942) translate(0.005000000000002558 12.444444444444446)"/><path d="M1195.82 1065.34h34.5c2.76 0 5 2.24 5 5v30.7c0 2.76-2.24 5-5 5h-18.62" stroke="#333" fill="none"/><path d="M1195.83 1065.84h-.5v-1h.5z" fill="#333"/><path d="M1196.94 1106.03l14.26-4.63v9.27z" stroke="#333" fill="#333"/><use xlink:href="#x" transform="matrix(1,0,0,1,1243.3191174840322,1076.3554178835986) translate(0.0049999999999954525 12.444444444444446)"/><path d="M1140 1188c0-4.42 3.58-8 8-8h24c4.42 0 8 3.58 8 8v64c0 4.42-3.58 8-8 8h-24c-4.42 0-8-3.58-8-8z" stroke="#f2f2f2" fill="#d2d3d5"/><path d="M1139 1199.95H216.64" stroke="#333" fill="none"/><path d="M1139.5 1200.45h-.5v-1h.5z" fill="#333"/><path d="M201.87 1199.95l14.27-4.63v9.27z" stroke="#333" fill="#333"/><use xlink:href="#y" transform="matrix(1,0,0,1,390.2179822384072,1177.2877462717395) translate(0.0049999999999954525 12.444444444444446)"/><use xlink:href="#z" transform="matrix(1,0,0,1,390.2179822384072,1177.2877462717395) translate(73.33216049382716 12.444444444444446)"/><use xlink:href="#A" transform="matrix(1,0,0,1,390.2179822384072,1177.2877462717395) translate(121.33833333333334 12.444444444444446)"/><path d="M200.75 1232.95h922.37" fill="none"/><path d="M200.75 1232.95h9.92m9.92 0h19.83m9.9 0h19.85m9.92 0h19.83m9.92 0h19.84m9.9 0h19.84m9.92 0h19.83m9.9 0h19.85m9.9 0h19.85m9.92 0h19.83m9.92 0h19.84m9.93 0h19.83m9.92 0h19.83m9.93 0h19.84m9.92 0h19.82m9.92 0h19.84m9.9 0h19.85m9.92 0h19.83m9.92 0h19.84m9.9 0H776m9.9 0h19.84m9.92 0h19.84m9.92 0h19.83m9.92 0H895m9.92 0h19.84m9.92 0h19.83m9.93 0h19.84m9.9 0h19.85m9.92 0h19.83m9.92 0h19.83m9.9 0h19.85m9.92 0h9.92" stroke="#333" fill="none"/><path d="M200.77 1233.45h-.52v-1h.52z" fill="#333"/><path d="M1137.88 1232.95l-14.26 4.63v-9.27z" stroke="#333" fill="#333"/><use xlink:href="#y" transform="matrix(1,0,0,1,391.30066577234163,1210.2807188573431) translate(0.0049999999999954525 12.444444444444446)"/><use xlink:href="#z" transform="matrix(1,0,0,1,391.30066577234163,1210.2807188573431) translate(73.33216049382716 12.444444444444446)"/><use xlink:href="#A" transform="matrix(1,0,0,1,391.30066577234163,1210.2807188573431) translate(121.33833333333334 12.444444444444446)"/><path d="M136.47 1148c0-4.42 3.58-8 8-8h99c4.4 0 8 3.58 8 8v4.93c0 3.9-2.24 9.3-5 12.07-2.77 2.76-8.17 5-12.08 5h-89.93c-4.42 0-8-3.58-8-8z" fill="#ffe6be"/><path d="M136.47 1148c0-4.42 3.58-8 8-8H1209.2c4.42 0 8 3.58 8 8v124c0 4.42-3.58 8-8 8H144.47c-4.42 0-8-3.58-8-8z" stroke="#333" fill="none"/><path d="M251.47 1140v20l-10 10h-105" stroke="#333" fill="#ffe6be"/><g><use xlink:href="#B" transform="matrix(1,0,0,1,144.46602818125393,1140) translate(0 18.6)"/></g><path d="M1153.82 1311.03H712.76" stroke="#333" fill="none"/><path d="M1154.32 1311.53h-.5v-1h.5z" fill="#333"/><path d="M698 1311.03l14.26-4.63v9.27z" stroke="#333" fill="#333"/><g><use xlink:href="#w" transform="matrix(1,0,0,1,874.8546266978468,1288.3640873099384) translate(0.005000000000002558 12.444444444444446)"/></g><path d="M654.87 1339.62H216.64" stroke="#333" fill="none"/><path d="M655.37 1340.12h-.5v-1h.5z" fill="#333"/><path d="M201.87 1339.62l14.27-4.63v9.26z" stroke="#333" fill="#333"/><g><use xlink:href="#C" transform="matrix(1,0,0,1,367.469961557717,1316.957996884128) translate(0.005000000000002558 12.444444444444446)"/><use xlink:href="#D" transform="matrix(1,0,0,1,367.469961557717,1316.957996884128) translate(69.83216049382716 12.444444444444446)"/></g><defs><path fill="#333" d="M24 0v-248h52V0H24" id="E"/><path fill="#333" d="M135-194c87-1 58 113 63 194h-50c-7-57 23-157-34-157-59 0-34 97-39 157H25l-1-190h47c2 12-1 28 3 38 12-26 28-41 61-42" id="F"/><path fill="#333" d="M195-6C206 82 75 100 31 46c-4-6-6-13-8-21l49-6c3 16 16 24 34 25 40 0 42-37 40-79-11 22-30 35-61 35-53 0-70-43-70-97 0-56 18-96 73-97 30 0 46 14 59 34l2-30h47zm-90-29c32 0 41-27 41-63 0-35-9-62-40-62-32 0-39 29-40 63 0 36 9 62 39 62" id="G"/><path fill="#333" d="M135-150c-39-12-60 13-60 57V0H25l-1-190h47c2 13-1 29 3 40 6-28 27-53 61-41v41" id="H"/><path fill="#333" d="M185-48c-13 30-37 53-82 52C43 2 14-33 14-96s30-98 90-98c62 0 83 45 84 108H66c0 31 8 55 39 56 18 0 30-7 34-22zm-45-69c5-46-57-63-70-21-2 6-4 13-4 21h74" id="I"/><path fill="#333" d="M137-138c1-29-70-34-71-4 15 46 118 7 119 86 1 83-164 76-172 9l43-7c4 19 20 25 44 25 33 8 57-30 24-41C81-84 22-81 20-136c-2-80 154-74 161-7" id="J"/><path fill="#333" d="M133-34C117-15 103 5 69 4 32 3 11-16 11-54c-1-60 55-63 116-61 1-26-3-47-28-47-18 1-26 9-28 27l-52-2c7-38 36-58 82-57s74 22 75 68l1 82c-1 14 12 18 25 15v27c-30 8-71 5-69-32zm-48 3c29 0 43-24 42-57-32 0-66-3-65 30 0 17 8 27 23 27" id="K"/><g id="a"><use transform="matrix(0.04320987654320988,0,0,0.04320987654320988,0,0)" xlink:href="#E"/><use transform="matrix(0.04320987654320988,0,0,0.04320987654320988,4.320987654320988,0)" xlink:href="#F"/><use transform="matrix(0.04320987654320988,0,0,0.04320987654320988,13.783950617283953,0)" xlink:href="#G"/><use transform="matrix(0.04320987654320988,0,0,0.04320987654320988,23.246913580246915,0)" xlink:href="#H"/><use transform="matrix(0.04320987654320988,0,0,0.04320987654320988,29.296296296296298,0)" xlink:href="#I"/><use transform="matrix(0.04320987654320988,0,0,0.04320987654320988,37.93827160493828,0)" xlink:href="#J"/><use transform="matrix(0.04320987654320988,0,0,0.04320987654320988,46.580246913580254,0)" xlink:href="#K"/><use transform="matrix(0.04320987654320988,0,0,0.04320987654320988,55.22222222222223,0)" xlink:href="#H"/></g><path fill="#333" d="M135-194c53 0 70 44 70 98 0 56-19 98-73 100-31 1-45-17-59-34 3 33 2 69 2 105H25l-1-265h48c2 10 0 23 3 31 11-24 29-35 60-35zM114-30c33 0 39-31 40-66 0-38-9-64-40-64-56 0-55 130 0 130" id="L"/><path fill="#333" d="M110-194c64 0 96 36 96 99 0 64-35 99-97 99-61 0-95-36-95-99 0-62 34-99 96-99zm-1 164c35 0 45-28 45-65 0-40-10-65-43-65-34 0-45 26-45 65 0 36 10 65 43 65" id="M"/><path fill="#333" d="M135-194c52 0 70 43 70 98 0 56-19 99-73 100-30 1-46-15-58-35L72 0H24l1-261h50v104c11-23 29-37 60-37zM114-30c31 0 40-27 40-66 0-37-7-63-39-63s-41 28-41 65c0 36 8 64 40 64" id="N"/><path fill="#333" d="M25 0v-261h50V0H25" id="O"/><path fill="#333" d="M220-157c-53 9-28 100-34 157h-49v-107c1-27-5-49-29-50C55-147 81-57 75 0H25l-1-190h47c2 12-1 28 3 38 10-53 101-56 108 0 13-22 24-43 59-42 82 1 51 116 57 194h-49v-107c-1-25-5-48-29-50" id="P"/><g id="b"><use transform="matrix(0.04320987654320988,0,0,0.04320987654320988,0,0)" xlink:href="#L"/><use transform="matrix(0.04320987654320988,0,0,0.04320987654320988,9.462962962962964,0)" xlink:href="#H"/><use transform="matrix(0.04320987654320988,0,0,0.04320987654320988,15.512345679012347,0)" xlink:href="#M"/><use transform="matrix(0.04320987654320988,0,0,0.04320987654320988,24.97530864197531,0)" xlink:href="#N"/><use transform="matrix(0.04320987654320988,0,0,0.04320987654320988,34.43827160493827,0)" xlink:href="#O"/><use transform="matrix(0.04320987654320988,0,0,0.04320987654320988,38.75925925925926,0)" xlink:href="#I"/><use transform="matrix(0.04320987654320988,0,0,0.04320987654320988,47.40123456790123,0)" xlink:href="#P"/><use transform="matrix(0.04320987654320988,0,0,0.04320987654320988,61.22839506172839,0)" xlink:href="#K"/></g><path fill="#333" d="M238-95c0 69-44 99-111 99C63 4 22-25 22-93v-155h51v151c-1 38 19 59 55 60 90 1 49-130 58-211h52v153" id="Q"/><g id="c"><use transform="matrix(0.06608480170031063,0,0,0.06608480170031063,0,0)" xlink:href="#Q"/><use transform="matrix(0.06608480170031063,0,0,0.06608480170031063,17.115963640380453,0)" xlink:href="#E"/></g><path fill="#333" d="M176-78C186 10 51 31 16-35c-5-9-9-19-11-32l52-8c4 21 12 37 35 38 23 0 32-16 32-40v-130H75v-41h101v170" id="R"/><path fill="#333" d="M169-182c-1-43-94-46-97-3 18 66 151 10 154 114 3 95-165 93-204 36-6-8-10-19-12-30l50-8c3 46 112 56 116 5-17-69-150-10-154-114-4-87 153-88 188-35 5 8 8 18 10 28" id="S"/><path fill="#333" d="M182 0l-62-99L58 0H3l86-130-79-118h55l55 88 55-88h55l-75 118L237 0h-55" id="T"/><g id="d"><use transform="matrix(0.06608480170031063,0,0,0.06608480170031063,0,0)" xlink:href="#R"/><use transform="matrix(0.06608480170031063,0,0,0.06608480170031063,13.216960340062126,0)" xlink:href="#S"/><use transform="matrix(0.06608480170031063,0,0,0.06608480170031063,29.077312748136677,0)" xlink:href="#T"/></g><path fill="#333" d="M85 4C-2 5 27-109 22-190h50c7 57-23 150 33 157 60-5 35-97 40-157h50l1 190h-47c-2-12 1-28-3-38-12 25-28 42-61 42" id="U"/><path fill="#333" d="M25-224v-37h50v37H25zM25 0v-190h50V0H25" id="V"/><g id="e"><use transform="matrix(0.04320987654320988,0,0,0.04320987654320988,0,0)" xlink:href="#Q"/><use transform="matrix(0.04320987654320988,0,0,0.04320987654320988,11.19135802469136,0)" xlink:href="#J"/><use transform="matrix(0.04320987654320988,0,0,0.04320987654320988,19.833333333333336,0)" xlink:href="#U"/><use transform="matrix(0.04320987654320988,0,0,0.04320987654320988,29.296296296296298,0)" xlink:href="#K"/><use transform="matrix(0.04320987654320988,0,0,0.04320987654320988,37.93827160493827,0)" xlink:href="#H"/><use transform="matrix(0.04320987654320988,0,0,0.04320987654320988,43.98765432098766,0)" xlink:href="#V"/><use transform="matrix(0.04320987654320988,0,0,0.04320987654320988,48.308641975308646,0)" xlink:href="#M"/></g><path fill="#333" d="M24 0v-248h195v40H76v63h132v40H76v65h150V0H24" id="W"/><path fill="#333" d="M115-3C79 11 28 4 28-45v-112H4v-33h27l15-45h31v45h36v33H77v99c-1 23 16 31 38 25v30" id="X"/><g id="f"><use transform="matrix(0.04320987654320988,0,0,0.04320987654320988,0,0)" xlink:href="#W"/><use transform="matrix(0.04320987654320988,0,0,0.04320987654320988,10.370370370370372,0)" xlink:href="#X"/><use transform="matrix(0.04320987654320988,0,0,0.04320987654320988,15.512345679012347,0)" xlink:href="#K"/><use transform="matrix(0.04320987654320988,0,0,0.04320987654320988,24.154320987654323,0)" xlink:href="#L"/><use transform="matrix(0.04320987654320988,0,0,0.04320987654320988,33.617283950617285,0)" xlink:href="#K"/></g><path fill="#333" d="M23 0v-37h61v-169l-59 37v-38l62-41h46v211h57V0H23" id="Y"/><use transform="matrix(0.04320987654320988,0,0,0.04320987654320988,0,0)" xlink:href="#Y" id="g"/><path fill="#333" d="M175 0L67-191c6 58 2 128 3 191H24v-248h59L193-55c-6-58-2-129-3-193h46V0h-61" id="Z"/><path fill="#333" d="M85 4C-2 5 27-109 22-190h50c7 57-23 150 33 157 60-5 35-97 40-157h50l1 190h-47c-2-12 1-28-3-38-12 25-28 42-61 42zm-4-212v-5l45-51h45v8l-60 48H81" id="aa"/><g id="h"><use transform="matrix(0.04320987654320988,0,0,0.04320987654320988,0,0)" xlink:href="#Z"/><use transform="matrix(0.04320987654320988,0,0,0.04320987654320988,11.19135802469136,0)" xlink:href="#aa"/><use transform="matrix(0.04320987654320988,0,0,0.04320987654320988,20.654320987654323,0)" xlink:href="#P"/><use transform="matrix(0.04320987654320988,0,0,0.04320987654320988,34.48148148148148,0)" xlink:href="#I"/><use transform="matrix(0.04320987654320988,0,0,0.04320987654320988,43.123456790123456,0)" xlink:href="#H"/><use transform="matrix(0.04320987654320988,0,0,0.04320987654320988,49.172839506172835,0)" xlink:href="#M"/></g><path fill="#333" d="M88-194c31-1 46 15 58 34l-1-101h50l1 261h-48c-2-10 0-23-3-31C134-8 116 4 84 4 32 4 16-41 15-95c0-56 19-97 73-99zm17 164c33 0 40-30 41-66 1-37-9-64-41-64s-38 30-39 65c0 43 13 65 39 65" id="ab"/><g id="i"><use transform="matrix(0.04320987654320988,0,0,0.04320987654320988,0,0)" xlink:href="#ab"/><use transform="matrix(0.04320987654320988,0,0,0.04320987654320988,9.462962962962964,0)" xlink:href="#I"/></g><path fill="#333" d="M128 0H69L1-190h53L99-40l48-150h52" id="ac"/><g id="j"><use transform="matrix(0.04320987654320988,0,0,0.04320987654320988,0,0)" xlink:href="#ac"/><use transform="matrix(0.04320987654320988,0,0,0.04320987654320988,8.641975308641976,0)" xlink:href="#K"/><use transform="matrix(0.04320987654320988,0,0,0.04320987654320988,17.283950617283953,0)" xlink:href="#H"/><use transform="matrix(0.04320987654320988,0,0,0.04320987654320988,23.333333333333336,0)" xlink:href="#V"/><use transform="matrix(0.04320987654320988,0,0,0.04320987654320988,27.654320987654323,0)" xlink:href="#K"/><use transform="matrix(0.04320987654320988,0,0,0.04320987654320988,36.2962962962963,0)" xlink:href="#N"/><use transform="matrix(0.04320987654320988,0,0,0.04320987654320988,45.75925925925927,0)" xlink:href="#O"/><use transform="matrix(0.04320987654320988,0,0,0.04320987654320988,50.08024691358024,0)" xlink:href="#I"/><use transform="matrix(0.04320987654320988,0,0,0.04320987654320988,58.72222222222222,0)" xlink:href="#J"/></g><path fill="#333" d="M25-224v-37h50v37H25zM75 22c2 45-34 59-81 51V38c22 5 31-5 31-27v-201h50V22" id="ad"/><path fill="#333" d="M144 0l-44-69L55 0H2l70-98-66-92h53l41 62 40-62h54l-67 91 71 99h-54" id="ae"/><path fill="#333" d="M-4 44V30h207v14H-4" id="af"/><path fill="#333" d="M190-63c-7 42-38 67-86 67-59 0-84-38-90-98-12-110 154-137 174-36l-49 2c-2-19-15-32-35-32-30 0-35 28-38 64-6 74 65 87 74 30" id="ag"/><path fill="#333" d="M67-93c0 74 22 123 53 168H70C40 30 18-18 18-93s22-123 52-168h50c-32 44-53 94-53 168" id="ah"/><path fill="#333" d="M24 0v-54h51V0H24" id="ai"/><path fill="#333" d="M102-93c0 74-22 123-52 168H0C30 29 54-18 53-93c0-74-22-123-53-168h50c30 45 52 94 52 168" id="aj"/><g id="k"><use transform="matrix(0.04320987654320988,0,0,0.04320987654320988,0,0)" xlink:href="#ad"/><use transform="matrix(0.04320987654320988,0,0,0.04320987654320988,4.320987654320988,0)" xlink:href="#J"/><use transform="matrix(0.04320987654320988,0,0,0.04320987654320988,12.962962962962964,0)" xlink:href="#ae"/><use transform="matrix(0.04320987654320988,0,0,0.04320987654320988,21.604938271604944,0)" xlink:href="#af"/><use transform="matrix(0.04320987654320988,0,0,0.04320987654320988,30.24691358024692,0)" xlink:href="#ag"/><use transform="matrix(0.04320987654320988,0,0,0.04320987654320988,38.88888888888889,0)" xlink:href="#K"/><use transform="matrix(0.04320987654320988,0,0,0.04320987654320988,47.53086419753087,0)" xlink:href="#P"/><use transform="matrix(0.04320987654320988,0,0,0.04320987654320988,61.35802469135802,0)" xlink:href="#N"/><use transform="matrix(0.04320987654320988,0,0,0.04320987654320988,70.82098765432099,0)" xlink:href="#V"/><use transform="matrix(0.04320987654320988,0,0,0.04320987654320988,75.14197530864197,0)" xlink:href="#K"/><use transform="matrix(0.04320987654320988,0,0,0.04320987654320988,83.78395061728395,0)" xlink:href="#H"/><use transform="matrix(0.04320987654320988,0,0,0.04320987654320988,89.83333333333333,0)" xlink:href="#af"/><use transform="matrix(0.04320987654320988,0,0,0.04320987654320988,98.4753086419753,0)" xlink:href="#F"/><use transform="matrix(0.04320987654320988,0,0,0.04320987654320988,107.93827160493827,0)" xlink:href="#U"/><use transform="matrix(0.04320987654320988,0,0,0.04320987654320988,117.40123456790123,0)" xlink:href="#P"/><use transform="matrix(0.04320987654320988,0,0,0.04320987654320988,131.22839506172838,0)" xlink:href="#ac"/><use transform="matrix(0.04320987654320988,0,0,0.04320987654320988,139.87037037037035,0)" xlink:href="#K"/><use transform="matrix(0.04320987654320988,0,0,0.04320987654320988,148.51234567901233,0)" xlink:href="#H"/><use transform="matrix(0.04320987654320988,0,0,0.04320987654320988,154.56172839506172,0)" xlink:href="#ah"/><use transform="matrix(0.04320987654320988,0,0,0.04320987654320988,159.7037037037037,0)" xlink:href="#U"/><use transform="matrix(0.04320987654320988,0,0,0.04320987654320988,169.16666666666666,0)" xlink:href="#V"/><use transform="matrix(0.04320987654320988,0,0,0.04320987654320988,173.48765432098764,0)" xlink:href="#ai"/><use transform="matrix(0.04320987654320988,0,0,0.04320987654320988,177.80864197530863,0)" xlink:href="#ac"/><use transform="matrix(0.04320987654320988,0,0,0.04320987654320988,186.4506172839506,0)" xlink:href="#K"/><use transform="matrix(0.04320987654320988,0,0,0.04320987654320988,195.09259259259258,0)" xlink:href="#O"/><use transform="matrix(0.04320987654320988,0,0,0.04320987654320988,199.41358024691357,0)" xlink:href="#U"/><use transform="matrix(0.04320987654320988,0,0,0.04320987654320988,208.87654320987653,0)" xlink:href="#I"/><use transform="matrix(0.04320987654320988,0,0,0.04320987654320988,217.5185185185185,0)" xlink:href="#aj"/></g><path fill="#333" d="M136-208V0H84v-208H4v-40h212v40h-80" id="ak"/><g id="l"><use transform="matrix(0.04320987654320988,0,0,0.04320987654320988,0,0)" xlink:href="#ak"/><use transform="matrix(0.04320987654320988,0,0,0.04320987654320988,9.160493827160494,0)" xlink:href="#V"/><use transform="matrix(0.04320987654320988,0,0,0.04320987654320988,13.481481481481481,0)" xlink:href="#L"/><use transform="matrix(0.04320987654320988,0,0,0.04320987654320988,22.944444444444443,0)" xlink:href="#M"/></g><path fill="#333" d="M121-226c-27-7-43 5-38 36h38v33H83V0H34v-157H6v-33h28c-9-59 32-81 87-68v32" id="al"/><path fill="#333" d="M110-194c64 0 96 36 96 99 0 64-35 99-97 99-61 0-95-36-95-99 0-62 34-99 96-99zm-1 164c35 0 45-28 45-65 0-40-10-65-43-65-34 0-45 26-45 65 0 36 10 65 43 65zM81-208v-5l45-51h45v8l-60 48H81" id="am"/><path fill="#333" d="M76-54c-1 42 2 86-19 110H24C36 42 46 24 48 0H25v-54h51" id="an"/><g id="m"><use transform="matrix(0.04320987654320988,0,0,0.04320987654320988,0,0)" xlink:href="#al"/><use transform="matrix(0.04320987654320988,0,0,0.04320987654320988,5.1419753086419755,0)" xlink:href="#U"/><use transform="matrix(0.04320987654320988,0,0,0.04320987654320988,14.60493827160494,0)" xlink:href="#F"/><use transform="matrix(0.04320987654320988,0,0,0.04320987654320988,24.067901234567906,0)" xlink:href="#ag"/><use transform="matrix(0.04320987654320988,0,0,0.04320987654320988,32.70987654320988,0)" xlink:href="#V"/><use transform="matrix(0.04320987654320988,0,0,0.04320987654320988,37.03086419753087,0)" xlink:href="#am"/><use transform="matrix(0.04320987654320988,0,0,0.04320987654320988,46.49382716049383,0)" xlink:href="#F"/><use transform="matrix(0.04320987654320988,0,0,0.04320987654320988,55.9567901234568,0)" xlink:href="#an"/></g><g id="n"><use transform="matrix(0.04320987654320988,0,0,0.04320987654320988,0,0)" xlink:href="#ac"/><use transform="matrix(0.04320987654320988,0,0,0.04320987654320988,8.641975308641976,0)" xlink:href="#K"/><use transform="matrix(0.04320987654320988,0,0,0.04320987654320988,17.283950617283953,0)" xlink:href="#O"/><use transform="matrix(0.04320987654320988,0,0,0.04320987654320988,21.60493827160494,0)" xlink:href="#M"/><use transform="matrix(0.04320987654320988,0,0,0.04320987654320988,31.067901234567906,0)" xlink:href="#H"/><use transform="matrix(0.04320987654320988,0,0,0.04320987654320988,37.11728395061729,0)" xlink:href="#I"/><use transform="matrix(0.04320987654320988,0,0,0.04320987654320988,45.75925925925927,0)" xlink:href="#J"/></g><path fill="#333" d="M12 0v-35l95-120H19v-35h142v35L67-36h103V0H12" id="ao"/><path fill="#333" d="M182-182c0 78-84 86-111 141h115V0H12c-6-101 99-100 120-180 1-22-12-31-33-32-23 0-32 14-35 34l-49-3c5-45 32-70 84-70 51 0 83 22 83 69" id="ap"/><g id="o"><use transform="matrix(0.04320987654320988,0,0,0.04320987654320988,0,0)" xlink:href="#ad"/><use transform="matrix(0.04320987654320988,0,0,0.04320987654320988,4.320987654320988,0)" xlink:href="#J"/><use transform="matrix(0.04320987654320988,0,0,0.04320987654320988,12.962962962962964,0)" xlink:href="#ae"/><use transform="matrix(0.04320987654320988,0,0,0.04320987654320988,21.604938271604944,0)" xlink:href="#af"/><use transform="matrix(0.04320987654320988,0,0,0.04320987654320988,30.24691358024692,0)" xlink:href="#K"/><use transform="matrix(0.04320987654320988,0,0,0.04320987654320988,38.88888888888889,0)" xlink:href="#ag"/><use transform="matrix(0.04320987654320988,0,0,0.04320987654320988,47.53086419753087,0)" xlink:href="#X"/><use transform="matrix(0.04320987654320988,0,0,0.04320987654320988,52.67283950617284,0)" xlink:href="#U"/><use transform="matrix(0.04320987654320988,0,0,0.04320987654320988,62.1358024691358,0)" xlink:href="#K"/><use transform="matrix(0.04320987654320988,0,0,0.04320987654320988,70.77777777777779,0)" xlink:href="#O"/><use transform="matrix(0.04320987654320988,0,0,0.04320987654320988,75.09876543209877,0)" xlink:href="#V"/><use transform="matrix(0.04320987654320988,0,0,0.04320987654320988,79.41975308641976,0)" xlink:href="#ao"/><use transform="matrix(0.04320987654320988,0,0,0.04320987654320988,87.19753086419755,0)" xlink:href="#K"/><use transform="matrix(0.04320987654320988,0,0,0.04320987654320988,95.83950617283952,0)" xlink:href="#H"/><use transform="matrix(0.04320987654320988,0,0,0.04320987654320988,101.8888888888889,0)" xlink:href="#ah"/><use transform="matrix(0.04320987654320988,0,0,0.04320987654320988,107.03086419753087,0)" xlink:href="#X"/><use transform="matrix(0.04320987654320988,0,0,0.04320987654320988,112.17283950617285,0)" xlink:href="#V"/><use transform="matrix(0.04320987654320988,0,0,0.04320987654320988,116.49382716049384,0)" xlink:href="#L"/><use transform="matrix(0.04320987654320988,0,0,0.04320987654320988,125.9567901234568,0)" xlink:href="#M"/><use transform="matrix(0.04320987654320988,0,0,0.04320987654320988,135.41975308641977,0)" xlink:href="#an"/><use transform="matrix(0.04320987654320988,0,0,0.04320987654320988,139.74074074074076,0)" xlink:href="#ae"/><use transform="matrix(0.04320987654320988,0,0,0.04320987654320988,148.38271604938274,0)" xlink:href="#Y"/><use transform="matrix(0.04320987654320988,0,0,0.04320987654320988,157.0246913580247,0)" xlink:href="#an"/><use transform="matrix(0.04320987654320988,0,0,0.04320987654320988,161.3456790123457,0)" xlink:href="#ae"/><use transform="matrix(0.04320987654320988,0,0,0.04320987654320988,169.98765432098767,0)" xlink:href="#ap"/><use transform="matrix(0.04320987654320988,0,0,0.04320987654320988,178.62962962962965,0)" xlink:href="#aj"/></g><path fill="#333" d="M24-248c93 1 206-16 204 79-1 75-69 88-152 82V0H24v-248zm52 121c47 0 100 7 100-41 0-47-54-39-100-39v80" id="aq"/><g id="p"><use transform="matrix(0.04320987654320988,0,0,0.04320987654320988,0,0)" xlink:href="#ad"/><use transform="matrix(0.04320987654320988,0,0,0.04320987654320988,4.320987654320988,0)" xlink:href="#J"/><use transform="matrix(0.04320987654320988,0,0,0.04320987654320988,12.962962962962964,0)" xlink:href="#ae"/><use transform="matrix(0.04320987654320988,0,0,0.04320987654320988,21.604938271604944,0)" xlink:href="#af"/><use transform="matrix(0.04320987654320988,0,0,0.04320987654320988,30.24691358024692,0)" xlink:href="#K"/><use transform="matrix(0.04320987654320988,0,0,0.04320987654320988,38.88888888888889,0)" xlink:href="#ag"/><use transform="matrix(0.04320987654320988,0,0,0.04320987654320988,47.53086419753087,0)" xlink:href="#X"/><use transform="matrix(0.04320987654320988,0,0,0.04320987654320988,52.67283950617284,0)" xlink:href="#U"/><use transform="matrix(0.04320987654320988,0,0,0.04320987654320988,62.1358024691358,0)" xlink:href="#K"/><use transform="matrix(0.04320987654320988,0,0,0.04320987654320988,70.77777777777779,0)" xlink:href="#O"/><use transform="matrix(0.04320987654320988,0,0,0.04320987654320988,75.09876543209877,0)" xlink:href="#V"/><use transform="matrix(0.04320987654320988,0,0,0.04320987654320988,79.41975308641976,0)" xlink:href="#ao"/><use transform="matrix(0.04320987654320988,0,0,0.04320987654320988,87.19753086419755,0)" xlink:href="#K"/><use transform="matrix(0.04320987654320988,0,0,0.04320987654320988,95.83950617283952,0)" xlink:href="#H"/><use transform="matrix(0.04320987654320988,0,0,0.04320987654320988,101.8888888888889,0)" xlink:href="#aq"/><use transform="matrix(0.04320987654320988,0,0,0.04320987654320988,112.25925925925927,0)" xlink:href="#H"/><use transform="matrix(0.04320987654320988,0,0,0.04320987654320988,118.30864197530866,0)" xlink:href="#M"/><use transform="matrix(0.04320987654320988,0,0,0.04320987654320988,127.7716049382716,0)" xlink:href="#N"/><use transform="matrix(0.04320987654320988,0,0,0.04320987654320988,137.23456790123458,0)" xlink:href="#O"/><use transform="matrix(0.04320987654320988,0,0,0.04320987654320988,141.55555555555557,0)" xlink:href="#I"/><use transform="matrix(0.04320987654320988,0,0,0.04320987654320988,150.19753086419755,0)" xlink:href="#P"/><use transform="matrix(0.04320987654320988,0,0,0.04320987654320988,164.0246913580247,0)" xlink:href="#K"/><use transform="matrix(0.04320987654320988,0,0,0.04320987654320988,172.66666666666669,0)" xlink:href="#ah"/><use transform="matrix(0.04320987654320988,0,0,0.04320987654320988,177.80864197530866,0)" xlink:href="#aj"/></g><path fill="#333" d="M240-174c0 40-23 61-54 70L253 0h-59l-57-94H76V0H24v-248c93 4 217-23 216 74zM76-134c48-2 112 12 112-38 0-48-66-32-112-35v73" id="ar"/><g id="q"><use transform="matrix(0.04320987654320988,0,0,0.04320987654320988,0,0)" xlink:href="#ar"/><use transform="matrix(0.04320987654320988,0,0,0.04320987654320988,11.19135802469136,0)" xlink:href="#I"/><use transform="matrix(0.04320987654320988,0,0,0.04320987654320988,19.833333333333336,0)" xlink:href="#J"/><use transform="matrix(0.04320987654320988,0,0,0.04320987654320988,28.47530864197531,0)" xlink:href="#X"/><use transform="matrix(0.04320987654320988,0,0,0.04320987654320988,33.617283950617285,0)" xlink:href="#H"/><use transform="matrix(0.04320987654320988,0,0,0.04320987654320988,39.66666666666667,0)" xlink:href="#V"/><use transform="matrix(0.04320987654320988,0,0,0.04320987654320988,43.98765432098766,0)" xlink:href="#ag"/><use transform="matrix(0.04320987654320988,0,0,0.04320987654320988,52.62962962962963,0)" xlink:href="#ag"/><use transform="matrix(0.04320987654320988,0,0,0.04320987654320988,61.27160493827161,0)" xlink:href="#V"/><use transform="matrix(0.04320987654320988,0,0,0.04320987654320988,65.5925925925926,0)" xlink:href="#am"/><use transform="matrix(0.04320987654320988,0,0,0.04320987654320988,75.05555555555556,0)" xlink:href="#F"/></g><g id="r"><use transform="matrix(0.04320987654320988,0,0,0.04320987654320988,0,0)" xlink:href="#ad"/><use transform="matrix(0.04320987654320988,0,0,0.04320987654320988,4.320987654320988,0)" xlink:href="#J"/><use transform="matrix(0.04320987654320988,0,0,0.04320987654320988,12.962962962962964,0)" xlink:href="#ae"/><use transform="matrix(0.04320987654320988,0,0,0.04320987654320988,21.604938271604944,0)" xlink:href="#af"/><use transform="matrix(0.04320987654320988,0,0,0.04320987654320988,30.24691358024692,0)" xlink:href="#F"/><use transform="matrix(0.04320987654320988,0,0,0.04320987654320988,39.70987654320988,0)" xlink:href="#U"/><use transform="matrix(0.04320987654320988,0,0,0.04320987654320988,49.17283950617284,0)" xlink:href="#I"/><use transform="matrix(0.04320987654320988,0,0,0.04320987654320988,57.814814814814824,0)" xlink:href="#ac"/><use transform="matrix(0.04320987654320988,0,0,0.04320987654320988,66.4567901234568,0)" xlink:href="#K"/><use transform="matrix(0.04320987654320988,0,0,0.04320987654320988,75.09876543209877,0)" xlink:href="#H"/><use transform="matrix(0.04320987654320988,0,0,0.04320987654320988,81.14814814814815,0)" xlink:href="#I"/><use transform="matrix(0.04320987654320988,0,0,0.04320987654320988,89.79012345679013,0)" xlink:href="#J"/><use transform="matrix(0.04320987654320988,0,0,0.04320987654320988,98.43209876543212,0)" xlink:href="#X"/><use transform="matrix(0.04320987654320988,0,0,0.04320987654320988,103.57407407407409,0)" xlink:href="#H"/><use transform="matrix(0.04320987654320988,0,0,0.04320987654320988,109.62345679012346,0)" xlink:href="#V"/><use transform="matrix(0.04320987654320988,0,0,0.04320987654320988,113.94444444444444,0)" xlink:href="#ag"/><use transform="matrix(0.04320987654320988,0,0,0.04320987654320988,122.58641975308642,0)" xlink:href="#ag"/><use transform="matrix(0.04320987654320988,0,0,0.04320987654320988,131.2283950617284,0)" xlink:href="#V"/><use transform="matrix(0.04320987654320988,0,0,0.04320987654320988,135.5493827160494,0)" xlink:href="#M"/><use transform="matrix(0.04320987654320988,0,0,0.04320987654320988,145.01234567901236,0)" xlink:href="#F"/><use transform="matrix(0.04320987654320988,0,0,0.04320987654320988,154.47530864197532,0)" xlink:href="#ah"/><use transform="matrix(0.04320987654320988,0,0,0.04320987654320988,159.6172839506173,0)" xlink:href="#aj"/></g><path fill="#333" d="M67-125c0 53 21 87 73 88 37 1 54-22 65-47l45 17C233-25 199 4 140 4 58 4 20-42 15-125 8-235 124-281 211-232c18 10 29 29 36 50l-46 12c-8-25-30-41-62-41-52 0-71 34-72 86" id="as"/><g id="s"><use transform="matrix(0.04320987654320988,0,0,0.04320987654320988,0,0)" xlink:href="#as"/><use transform="matrix(0.04320987654320988,0,0,0.04320987654320988,11.19135802469136,0)" xlink:href="#M"/><use transform="matrix(0.04320987654320988,0,0,0.04320987654320988,20.654320987654323,0)" xlink:href="#F"/><use transform="matrix(0.04320987654320988,0,0,0.04320987654320988,30.11728395061729,0)" xlink:href="#X"/><use transform="matrix(0.04320987654320988,0,0,0.04320987654320988,35.25925925925926,0)" xlink:href="#V"/><use transform="matrix(0.04320987654320988,0,0,0.04320987654320988,39.58024691358025,0)" xlink:href="#F"/><use transform="matrix(0.04320987654320988,0,0,0.04320987654320988,49.04320987654321,0)" xlink:href="#U"/><use transform="matrix(0.04320987654320988,0,0,0.04320987654320988,58.50617283950617,0)" xlink:href="#K"/><use transform="matrix(0.04320987654320988,0,0,0.04320987654320988,67.14814814814815,0)" xlink:href="#H"/></g><use transform="matrix(0.04320987654320988,0,0,0.04320987654320988,0,0)" xlink:href="#ap" id="t"/><g id="u"><use transform="matrix(0.04320987654320988,0,0,0.04320987654320988,0,0)" xlink:href="#ar"/><use transform="matrix(0.04320987654320988,0,0,0.04320987654320988,11.19135802469136,0)" xlink:href="#I"/><use transform="matrix(0.04320987654320988,0,0,0.04320987654320988,19.833333333333336,0)" xlink:href="#J"/><use transform="matrix(0.04320987654320988,0,0,0.04320987654320988,28.47530864197531,0)" xlink:href="#M"/><use transform="matrix(0.04320987654320988,0,0,0.04320987654320988,37.93827160493827,0)" xlink:href="#O"/><use transform="matrix(0.04320987654320988,0,0,0.04320987654320988,42.25925925925926,0)" xlink:href="#ac"/><use transform="matrix(0.04320987654320988,0,0,0.04320987654320988,50.90123456790123,0)" xlink:href="#I"/><use transform="matrix(0.04320987654320988,0,0,0.04320987654320988,59.54320987654321,0)" xlink:href="#H"/></g><g id="v"><use transform="matrix(0.04320987654320988,0,0,0.04320987654320988,0,0)" xlink:href="#L"/><use transform="matrix(0.04320987654320988,0,0,0.04320987654320988,9.462962962962964,0)" xlink:href="#H"/><use transform="matrix(0.04320987654320988,0,0,0.04320987654320988,15.512345679012347,0)" xlink:href="#M"/><use transform="matrix(0.04320987654320988,0,0,0.04320987654320988,24.97530864197531,0)" xlink:href="#N"/><use transform="matrix(0.04320987654320988,0,0,0.04320987654320988,34.43827160493827,0)" xlink:href="#O"/><use transform="matrix(0.04320987654320988,0,0,0.04320987654320988,38.75925925925926,0)" xlink:href="#I"/><use transform="matrix(0.04320987654320988,0,0,0.04320987654320988,47.40123456790123,0)" xlink:href="#P"/><use transform="matrix(0.04320987654320988,0,0,0.04320987654320988,61.22839506172839,0)" xlink:href="#K"/></g><g id="w"><use transform="matrix(0.04320987654320988,0,0,0.04320987654320988,0,0)" xlink:href="#ad"/><use transform="matrix(0.04320987654320988,0,0,0.04320987654320988,4.320987654320988,0)" xlink:href="#J"/><use transform="matrix(0.04320987654320988,0,0,0.04320987654320988,12.962962962962964,0)" xlink:href="#ae"/><use transform="matrix(0.04320987654320988,0,0,0.04320987654320988,21.604938271604944,0)" xlink:href="#af"/><use transform="matrix(0.04320987654320988,0,0,0.04320987654320988,30.24691358024692,0)" xlink:href="#H"/><use transform="matrix(0.04320987654320988,0,0,0.04320987654320988,36.296296296296305,0)" xlink:href="#I"/><use transform="matrix(0.04320987654320988,0,0,0.04320987654320988,44.93827160493828,0)" xlink:href="#J"/><use transform="matrix(0.04320987654320988,0,0,0.04320987654320988,53.580246913580254,0)" xlink:href="#M"/><use transform="matrix(0.04320987654320988,0,0,0.04320987654320988,63.043209876543216,0)" xlink:href="#O"/><use transform="matrix(0.04320987654320988,0,0,0.04320987654320988,67.3641975308642,0)" xlink:href="#ac"/><use transform="matrix(0.04320987654320988,0,0,0.04320987654320988,76.00617283950618,0)" xlink:href="#I"/><use transform="matrix(0.04320987654320988,0,0,0.04320987654320988,84.64814814814815,0)" xlink:href="#H"/><use transform="matrix(0.04320987654320988,0,0,0.04320987654320988,90.69753086419755,0)" xlink:href="#ah"/><use transform="matrix(0.04320987654320988,0,0,0.04320987654320988,95.83950617283949,0)" xlink:href="#aj"/></g><g id="x"><use transform="matrix(0.04320987654320988,0,0,0.04320987654320988,0,0)" xlink:href="#ad"/><use transform="matrix(0.04320987654320988,0,0,0.04320987654320988,4.320987654320988,0)" xlink:href="#J"/><use transform="matrix(0.04320987654320988,0,0,0.04320987654320988,12.962962962962964,0)" xlink:href="#ae"/><use transform="matrix(0.04320987654320988,0,0,0.04320987654320988,21.604938271604944,0)" xlink:href="#af"/><use transform="matrix(0.04320987654320988,0,0,0.04320987654320988,30.24691358024692,0)" xlink:href="#H"/><use transform="matrix(0.04320987654320988,0,0,0.04320987654320988,36.296296296296305,0)" xlink:href="#I"/><use transform="matrix(0.04320987654320988,0,0,0.04320987654320988,44.93827160493828,0)" xlink:href="#J"/><use transform="matrix(0.04320987654320988,0,0,0.04320987654320988,53.580246913580254,0)" xlink:href="#M"/><use transform="matrix(0.04320987654320988,0,0,0.04320987654320988,63.043209876543216,0)" xlink:href="#O"/><use transform="matrix(0.04320987654320988,0,0,0.04320987654320988,67.3641975308642,0)" xlink:href="#ac"/><use transform="matrix(0.04320987654320988,0,0,0.04320987654320988,76.00617283950618,0)" xlink:href="#I"/><use transform="matrix(0.04320987654320988,0,0,0.04320987654320988,84.64814814814815,0)" xlink:href="#H"/><use transform="matrix(0.04320987654320988,0,0,0.04320987654320988,90.69753086419755,0)" xlink:href="#af"/><use transform="matrix(0.04320987654320988,0,0,0.04320987654320988,99.33950617283949,0)" xlink:href="#P"/><use transform="matrix(0.04320987654320988,0,0,0.04320987654320988,113.16666666666669,0)" xlink:href="#K"/><use transform="matrix(0.04320987654320988,0,0,0.04320987654320988,121.80864197530866,0)" xlink:href="#X"/><use transform="matrix(0.04320987654320988,0,0,0.04320987654320988,126.9506172839506,0)" xlink:href="#H"/><use transform="matrix(0.04320987654320988,0,0,0.04320987654320988,133,0)" xlink:href="#V"/><use transform="matrix(0.04320987654320988,0,0,0.04320987654320988,137.320987654321,0)" xlink:href="#ao"/><use transform="matrix(0.04320987654320988,0,0,0.04320987654320988,145.09876543209876,0)" xlink:href="#ah"/><use transform="matrix(0.04320987654320988,0,0,0.04320987654320988,150.24074074074073,0)" xlink:href="#aj"/></g><g id="y"><use transform="matrix(0.04320987654320988,0,0,0.04320987654320988,0,0)" xlink:href="#E"/><use transform="matrix(0.04320987654320988,0,0,0.04320987654320988,4.320987654320988,0)" xlink:href="#X"/><use transform="matrix(0.04320987654320988,0,0,0.04320987654320988,9.462962962962964,0)" xlink:href="#I"/><use transform="matrix(0.04320987654320988,0,0,0.04320987654320988,18.10493827160494,0)" xlink:href="#H"/><use transform="matrix(0.04320987654320988,0,0,0.04320987654320988,24.154320987654323,0)" xlink:href="#K"/><use transform="matrix(0.04320987654320988,0,0,0.04320987654320988,32.7962962962963,0)" xlink:href="#ag"/><use transform="matrix(0.04320987654320988,0,0,0.04320987654320988,41.43827160493827,0)" xlink:href="#V"/><use transform="matrix(0.04320987654320988,0,0,0.04320987654320988,45.75925925925927,0)" xlink:href="#am"/><use transform="matrix(0.04320987654320988,0,0,0.04320987654320988,55.22222222222222,0)" xlink:href="#F"/><use transform="matrix(0.04320987654320988,0,0,0.04320987654320988,64.68518518518519,0)" xlink:href="#an"/></g><g id="z"><use transform="matrix(0.04320987654320988,0,0,0.04320987654320988,0,0)" xlink:href="#ak"/><use transform="matrix(0.04320987654320988,0,0,0.04320987654320988,8.296296296296298,0)" xlink:href="#K"/><use transform="matrix(0.04320987654320988,0,0,0.04320987654320988,16.938271604938272,0)" xlink:href="#N"/><use transform="matrix(0.04320987654320988,0,0,0.04320987654320988,26.401234567901234,0)" xlink:href="#O"/><use transform="matrix(0.04320987654320988,0,0,0.04320987654320988,30.72222222222222,0)" xlink:href="#K"/><use transform="matrix(0.04320987654320988,0,0,0.04320987654320988,39.364197530864196,0)" xlink:href="#an"/></g><g id="A"><use transform="matrix(0.04320987654320988,0,0,0.04320987654320988,0,0)" xlink:href="#ar"/><use transform="matrix(0.04320987654320988,0,0,0.04320987654320988,11.19135802469136,0)" xlink:href="#I"/><use transform="matrix(0.04320987654320988,0,0,0.04320987654320988,19.833333333333336,0)" xlink:href="#J"/><use transform="matrix(0.04320987654320988,0,0,0.04320987654320988,28.47530864197531,0)" xlink:href="#U"/><use transform="matrix(0.04320987654320988,0,0,0.04320987654320988,37.93827160493827,0)" xlink:href="#O"/><use transform="matrix(0.04320987654320988,0,0,0.04320987654320988,42.25925925925926,0)" xlink:href="#X"/><use transform="matrix(0.04320987654320988,0,0,0.04320987654320988,47.40123456790123,0)" xlink:href="#K"/><use transform="matrix(0.04320987654320988,0,0,0.04320987654320988,56.04320987654321,0)" xlink:href="#ab"/><use transform="matrix(0.04320987654320988,0,0,0.04320987654320988,65.50617283950618,0)" xlink:href="#M"/></g><path d="M24-231v-30h32v30H24zM24 0v-190h32V0H24" id="at"/><path d="M18-150v-26h174v26H18zm0 90v-26h174v26H18" id="au"/><path d="M27 0v-27h64v-190l-56 39v-29l58-41h29v221h61V0H27" id="av"/><path d="M33 0v-38h34V0H33" id="aw"/><path d="M117-194c89-4 53 116 60 194h-32v-121c0-31-8-49-39-48C34-167 62-67 57 0H25l-1-190h30c1 10-1 24 2 32 11-22 29-35 61-36" id="ax"/><g id="B"><use transform="matrix(0.05,0,0,0.05,0,0)" xlink:href="#at"/><use transform="matrix(0.05,0,0,0.05,3.95,0)" xlink:href="#au"/><use transform="matrix(0.05,0,0,0.05,14.449999999999998,0)" xlink:href="#av"/><use transform="matrix(0.05,0,0,0.05,24.45,0)" xlink:href="#aw"/><use transform="matrix(0.05,0,0,0.05,29.450000000000003,0)" xlink:href="#aw"/><use transform="matrix(0.05,0,0,0.05,34.45,0)" xlink:href="#ax"/></g><g id="C"><use transform="matrix(0.04320987654320988,0,0,0.04320987654320988,0,0)" xlink:href="#S"/><use transform="matrix(0.04320987654320988,0,0,0.04320987654320988,10.370370370370372,0)" xlink:href="#M"/><use transform="matrix(0.04320987654320988,0,0,0.04320987654320988,19.833333333333336,0)" xlink:href="#O"/><use transform="matrix(0.04320987654320988,0,0,0.04320987654320988,24.154320987654323,0)" xlink:href="#U"/><use transform="matrix(0.04320987654320988,0,0,0.04320987654320988,33.617283950617285,0)" xlink:href="#ag"/><use transform="matrix(0.04320987654320988,0,0,0.04320987654320988,42.25925925925926,0)" xlink:href="#V"/><use transform="matrix(0.04320987654320988,0,0,0.04320987654320988,46.58024691358024,0)" xlink:href="#am"/><use transform="matrix(0.04320987654320988,0,0,0.04320987654320988,56.04320987654321,0)" xlink:href="#F"/></g><g id="D"><use transform="matrix(0.04320987654320988,0,0,0.04320987654320988,0,0)" xlink:href="#am"/><use transform="matrix(0.04320987654320988,0,0,0.04320987654320988,9.462962962962964,0)" xlink:href="#L"/><use transform="matrix(0.04320987654320988,0,0,0.04320987654320988,18.925925925925927,0)" xlink:href="#X"/><use transform="matrix(0.04320987654320988,0,0,0.04320987654320988,24.067901234567906,0)" xlink:href="#V"/><use transform="matrix(0.04320987654320988,0,0,0.04320987654320988,28.388888888888886,0)" xlink:href="#P"/><use transform="matrix(0.04320987654320988,0,0,0.04320987654320988,42.21604938271605,0)" xlink:href="#K"/></g></defs></g></svg>